<svg width="1660" height="457" viewBox="0 0 1660 457" fill="none" xmlns="http://www.w3.org/2000/svg">
<rect width="1660" height="457" fill="black"/>
<path d="M478.556 156.088C478.635 156.088 478.786 156.086 478.922 156.104C479.064 156.122 479.283 156.173 479.49 156.334L479.578 156.41L479.657 156.495C479.826 156.696 479.885 156.913 479.909 157.054C479.932 157.188 479.936 157.34 479.939 157.419L482.409 221.014L509.409 201.813C509.468 201.771 509.583 201.688 509.697 201.627C509.835 201.553 510.068 201.457 510.365 201.488C510.663 201.52 510.871 201.663 510.99 201.764C511.089 201.847 511.183 201.953 511.232 202.007L517.643 209L517.651 209.009L517.664 209.023L517.777 209.148C517.821 209.199 517.867 209.256 517.907 209.313C518.003 209.451 518.139 209.696 518.123 210.028C518.107 210.36 517.95 210.592 517.842 210.72C517.751 210.827 517.634 210.93 517.572 210.985L492.354 233.802L538.805 246.638C538.884 246.66 539.033 246.698 539.161 246.753C539.295 246.81 539.497 246.92 539.654 247.137L539.72 247.237L539.772 247.343C539.88 247.589 539.873 247.82 539.854 247.964C539.837 248.102 539.796 248.25 539.774 248.329L537.447 257.056C537.428 257.128 537.392 257.269 537.342 257.391C537.282 257.537 537.16 257.766 536.902 257.932C536.644 258.098 536.386 258.114 536.228 258.107C536.134 258.104 536.034 258.089 535.958 258.076H535.955L535.879 258.063L488.784 250.112L501.393 280.73C501.422 280.801 501.479 280.937 501.514 281.066C501.555 281.221 501.597 281.481 501.487 281.773C501.378 282.065 501.176 282.234 501.043 282.323C500.932 282.398 500.8 282.462 500.731 282.496L492.568 286.578C492.499 286.613 492.366 286.68 492.238 286.725C492.085 286.777 491.827 286.839 491.524 286.748C491.222 286.657 491.04 286.463 490.941 286.334C490.86 286.227 490.788 286.097 490.749 286.029L474.537 257.811L450.658 300.062C450.62 300.13 450.547 300.261 450.466 300.369C450.368 300.499 450.186 300.695 449.882 300.788C449.578 300.881 449.317 300.82 449.164 300.767C449.036 300.722 448.903 300.654 448.833 300.619L440.724 296.563L440.677 296.541C440.607 296.506 440.474 296.442 440.362 296.366C440.229 296.276 440.026 296.106 439.917 295.811C439.808 295.515 439.852 295.254 439.896 295.099C439.932 294.969 439.992 294.833 440.022 294.762L458.986 250.102L425.303 255.516C425.229 255.527 425.087 255.552 424.956 255.556C424.798 255.561 424.542 255.543 424.286 255.377C424.03 255.211 423.909 254.985 423.85 254.839C423.8 254.717 423.764 254.577 423.745 254.505L421.415 245.768C421.394 245.69 421.354 245.544 421.336 245.407C421.315 245.244 421.308 244.971 421.466 244.688C421.624 244.406 421.861 244.27 422.011 244.203C422.136 244.147 422.282 244.106 422.359 244.083L454.832 234.461L418.669 201.363C418.617 201.316 418.513 201.223 418.431 201.126C418.332 201.009 418.191 200.808 418.156 200.518C418.121 200.227 418.209 199.997 418.277 199.86C418.334 199.747 418.412 199.632 418.451 199.573L423.077 192.636C423.124 192.565 423.209 192.433 423.303 192.327C423.414 192.201 423.623 192.008 423.953 191.945C424.283 191.883 424.547 191.987 424.697 192.063C424.823 192.128 424.951 192.219 425.021 192.268L465.377 220.396L467.848 157.418C467.851 157.339 467.855 157.188 467.878 157.054C467.906 156.893 467.978 156.632 468.209 156.41C468.44 156.188 468.703 156.125 468.865 156.104C469.001 156.086 469.152 156.088 469.231 156.088H478.556Z" fill="white" stroke="white" stroke-width="1.84615"/>
<path d="M654.64 272.44C648.56 272.44 643.24 271.08 638.68 268.36C634.12 265.64 630.56 261.76 628 256.72C625.52 251.68 624.28 245.8 624.28 239.08C624.28 232.36 625.52 226.48 628 221.44C630.56 216.4 634.12 212.52 638.68 209.8C643.24 207.08 648.56 205.72 654.64 205.72C660.64 205.72 665.92 207.12 670.48 209.92C675.12 212.64 678.68 216.52 681.16 221.56C683.64 226.52 684.88 232.36 684.88 239.08C684.88 245.8 683.64 251.68 681.16 256.72C678.68 261.68 675.12 265.56 670.48 268.36C665.92 271.08 660.64 272.44 654.64 272.44ZM654.64 261.4C660 261.4 664.16 259.44 667.12 255.52C670.16 251.6 671.68 246.12 671.68 239.08C671.68 232.04 670.16 226.56 667.12 222.64C664.16 218.72 660 216.76 654.64 216.76C649.28 216.76 645.08 218.72 642.04 222.64C639 226.56 637.48 232.04 637.48 239.08C637.48 246.12 639 251.6 642.04 255.52C645.08 259.44 649.28 261.4 654.64 261.4ZM723.39 272.44C714.67 272.44 707.83 270.48 702.87 266.56C697.91 262.64 695.19 257.4 694.71 250.84L707.91 250.24C709.11 257.92 714.27 261.76 723.39 261.76C727.47 261.76 730.63 261.12 732.87 259.84C735.19 258.48 736.35 256.44 736.35 253.72C736.35 252.04 735.95 250.72 735.15 249.76C734.35 248.72 732.87 247.84 730.71 247.12C728.55 246.32 725.35 245.56 721.11 244.84C714.79 243.72 709.83 242.32 706.23 240.64C702.63 238.96 700.07 236.92 698.55 234.52C697.03 232.12 696.27 229.12 696.27 225.52C696.27 219.52 698.51 214.72 702.99 211.12C707.47 207.52 713.75 205.72 721.83 205.72C729.59 205.72 735.75 207.68 740.31 211.6C744.87 215.52 747.63 220.56 748.59 226.72L735.51 227.44C734.87 224 733.35 221.32 730.95 219.4C728.63 217.4 725.55 216.4 721.71 216.4C717.71 216.4 714.67 217.2 712.59 218.8C710.51 220.32 709.47 222.4 709.47 225.04C709.47 227.84 710.51 229.92 712.59 231.28C714.75 232.64 718.47 233.76 723.75 234.64C730.31 235.68 735.47 237.04 739.23 238.72C742.99 240.32 745.63 242.32 747.15 244.72C748.75 247.04 749.55 250 749.55 253.6C749.55 259.44 747.11 264.04 742.23 267.4C737.43 270.76 731.15 272.44 723.39 272.44ZM788.077 272.44C779.357 272.44 772.517 270.48 767.557 266.56C762.597 262.64 759.877 257.4 759.397 250.84L772.597 250.24C773.797 257.92 778.957 261.76 788.077 261.76C792.157 261.76 795.317 261.12 797.557 259.84C799.877 258.48 801.037 256.44 801.037 253.72C801.037 252.04 800.637 250.72 799.837 249.76C799.037 248.72 797.557 247.84 795.397 247.12C793.237 246.32 790.037 245.56 785.797 244.84C779.477 243.72 774.517 242.32 770.917 240.64C767.317 238.96 764.757 236.92 763.237 234.52C761.717 232.12 760.957 229.12 760.957 225.52C760.957 219.52 763.197 214.72 767.677 211.12C772.157 207.52 778.437 205.72 786.517 205.72C794.277 205.72 800.437 207.68 804.997 211.6C809.557 215.52 812.317 220.56 813.277 226.72L800.197 227.44C799.557 224 798.037 221.32 795.637 219.4C793.317 217.4 790.237 216.4 786.397 216.4C782.397 216.4 779.357 217.2 777.277 218.8C775.197 220.32 774.157 222.4 774.157 225.04C774.157 227.84 775.197 229.92 777.277 231.28C779.437 232.64 783.157 233.76 788.437 234.64C794.997 235.68 800.157 237.04 803.917 238.72C807.677 240.32 810.317 242.32 811.837 244.72C813.437 247.04 814.237 250 814.237 253.6C814.237 259.44 811.797 264.04 806.917 267.4C802.117 270.76 795.837 272.44 788.077 272.44ZM829.828 255.88H845.428V271H829.828V255.88ZM829.828 210.16H845.428V225.28H829.828V210.16ZM866.039 255.88H881.639V271H866.039V255.88ZM866.039 210.16H881.639V225.28H866.039V210.16ZM900.93 207.16H912.93L913.17 216.88C915.01 213.28 917.61 210.52 920.97 208.6C924.33 206.68 928.17 205.72 932.49 205.72C938.49 205.72 943.53 207.2 947.61 210.16C951.77 213.12 954.85 217.12 956.85 222.16C958.85 227.2 959.85 232.84 959.85 239.08C959.85 245.24 958.81 250.84 956.73 255.88C954.73 260.92 951.69 264.96 947.61 268C943.53 270.96 938.49 272.44 932.49 272.44C928.33 272.44 924.57 271.56 921.21 269.8C917.85 267.96 915.33 265.48 913.65 262.36V289H900.93V207.16ZM930.21 261.4C935.33 261.4 939.33 259.44 942.21 255.52C945.17 251.52 946.65 246.04 946.65 239.08C946.65 232.12 945.17 226.68 942.21 222.76C939.33 218.76 935.33 216.76 930.21 216.76C925.01 216.76 920.93 218.68 917.97 222.52C915.09 226.28 913.65 231.8 913.65 239.08C913.65 246.36 915.09 251.92 917.97 255.76C920.93 259.52 925.01 261.4 930.21 261.4ZM992.175 272.44C985.455 272.44 980.135 270.92 976.215 267.88C972.295 264.76 970.335 260.48 970.335 255.04C970.335 249.6 971.975 245.32 975.255 242.2C978.535 239.08 983.695 236.84 990.735 235.48L1012.69 231.28C1012.69 221.44 1008.13 216.52 999.015 216.52C991.095 216.52 986.295 220.08 984.615 227.2L971.415 226.36C972.615 219.96 975.615 214.92 980.415 211.24C985.295 207.56 991.495 205.72 999.015 205.72C1007.57 205.72 1014.09 208.04 1018.57 212.68C1023.13 217.24 1025.41 223.68 1025.41 232V256.84C1025.41 258.36 1025.69 259.44 1026.25 260.08C1026.81 260.64 1027.69 260.92 1028.89 260.92H1031.17V271C1030.37 271.24 1028.81 271.36 1026.49 271.36C1022.73 271.36 1019.81 270.56 1017.73 268.96C1015.65 267.36 1014.33 264.76 1013.77 261.16C1012.17 264.52 1009.41 267.24 1005.49 269.32C1001.57 271.4 997.135 272.44 992.175 272.44ZM994.335 262.36C999.935 262.36 1004.37 260.76 1007.65 257.56C1011.01 254.36 1012.69 250.16 1012.69 244.96V240.88L994.095 244.48C990.335 245.2 987.615 246.32 985.935 247.84C984.335 249.36 983.535 251.36 983.535 253.84C983.535 256.56 984.455 258.68 986.295 260.2C988.215 261.64 990.895 262.36 994.335 262.36ZM1069.12 290.44C1061.6 290.44 1055.4 288.76 1050.52 285.4C1045.72 282.12 1042.64 277.68 1041.28 272.08L1054.48 271.24C1055.36 274.12 1056.92 276.28 1059.16 277.72C1061.48 279.16 1064.8 279.88 1069.12 279.88C1080 279.88 1085.44 275.36 1085.44 266.32V257.08C1083.84 260.36 1081.36 262.96 1078 264.88C1074.72 266.8 1071 267.76 1066.84 267.76C1061.56 267.76 1056.8 266.48 1052.56 263.92C1048.4 261.28 1045.16 257.6 1042.84 252.88C1040.52 248.16 1039.36 242.8 1039.36 236.8C1039.36 230.8 1040.52 225.44 1042.84 220.72C1045.16 216 1048.36 212.32 1052.44 209.68C1056.6 207.04 1061.28 205.72 1066.48 205.72C1070.96 205.72 1074.92 206.76 1078.36 208.84C1081.88 210.92 1084.4 213.72 1085.92 217.24V207.16H1098.28V265.96C1098.28 273.72 1095.68 279.72 1090.48 283.96C1085.28 288.28 1078.16 290.44 1069.12 290.44ZM1068.88 256.96C1074 256.96 1078.04 255.12 1081 251.44C1084.04 247.76 1085.56 242.72 1085.56 236.32C1085.56 230.24 1084.04 225.44 1081 221.92C1077.96 218.32 1073.92 216.52 1068.88 216.52C1063.76 216.52 1059.76 218.32 1056.88 221.92C1054 225.52 1052.56 230.44 1052.56 236.68C1052.56 242.92 1054 247.88 1056.88 251.56C1059.84 255.16 1063.84 256.96 1068.88 256.96ZM1141.2 272.44C1135.12 272.44 1129.8 271.08 1125.24 268.36C1120.68 265.56 1117.16 261.64 1114.68 256.6C1112.2 251.56 1110.96 245.72 1110.96 239.08C1110.96 232.44 1112.16 226.6 1114.56 221.56C1117.04 216.52 1120.52 212.64 1125 209.92C1129.56 207.12 1134.84 205.72 1140.84 205.72C1146.68 205.72 1151.8 207.08 1156.2 209.8C1160.6 212.44 1164 216.32 1166.4 221.44C1168.88 226.48 1170.12 232.52 1170.12 239.56V242.8H1124.28C1124.6 248.96 1126.24 253.64 1129.2 256.84C1132.16 259.96 1136.2 261.52 1141.32 261.52C1145 261.52 1148.08 260.68 1150.56 259C1153.12 257.24 1154.92 254.84 1155.96 251.8L1169.16 252.64C1167.48 258.64 1164.12 263.44 1159.08 267.04C1154.12 270.64 1148.16 272.44 1141.2 272.44ZM1156.56 233.2C1156.24 227.68 1154.68 223.52 1151.88 220.72C1149.08 217.92 1145.4 216.52 1140.84 216.52C1136.28 216.52 1132.56 217.96 1129.68 220.84C1126.8 223.72 1125 227.84 1124.28 233.2H1156.56ZM1208.66 272.44C1199.94 272.44 1193.1 270.48 1188.14 266.56C1183.18 262.64 1180.46 257.4 1179.98 250.84L1193.18 250.24C1194.38 257.92 1199.54 261.76 1208.66 261.76C1212.74 261.76 1215.9 261.12 1218.14 259.84C1220.46 258.48 1221.62 256.44 1221.62 253.72C1221.62 252.04 1221.22 250.72 1220.42 249.76C1219.62 248.72 1218.14 247.84 1215.98 247.12C1213.82 246.32 1210.62 245.56 1206.38 244.84C1200.06 243.72 1195.1 242.32 1191.5 240.64C1187.9 238.96 1185.34 236.92 1183.82 234.52C1182.3 232.12 1181.54 229.12 1181.54 225.52C1181.54 219.52 1183.78 214.72 1188.26 211.12C1192.74 207.52 1199.02 205.72 1207.1 205.72C1214.86 205.72 1221.02 207.68 1225.58 211.6C1230.14 215.52 1232.9 220.56 1233.86 226.72L1220.78 227.44C1220.14 224 1218.62 221.32 1216.22 219.4C1213.9 217.4 1210.82 216.4 1206.98 216.4C1202.98 216.4 1199.94 217.2 1197.86 218.8C1195.78 220.32 1194.74 222.4 1194.74 225.04C1194.74 227.84 1195.78 229.92 1197.86 231.28C1200.02 232.64 1203.74 233.76 1209.02 234.64C1215.58 235.68 1220.74 237.04 1224.5 238.72C1228.26 240.32 1230.9 242.32 1232.42 244.72C1234.02 247.04 1234.82 250 1234.82 253.6C1234.82 259.44 1232.38 264.04 1227.5 267.4C1222.7 270.76 1216.42 272.44 1208.66 272.44Z" fill="white"/>
</svg>
